<svg id="Layer_1" data-name="Layer 1" xmlns="http://www.w3.org/2000/svg" viewBox="0 0 90.52 79.28"><defs><style>.cls-1{fill:#fff;}.cls-2{fill:#b8c7d8;}.cls-3{fill:#f99b1d;}.cls-4{fill:#3a7f91;}.cls-5{fill:#062f3a;}.cls-6{fill:#14b0bf;}.cls-7{fill:#e55555;}</style></defs><path class="cls-1" d="M406.44,279.36a29.07,29.07,0,1,1-29.07-29.07A29.08,29.08,0,0,1,406.44,279.36Z" transform="translate(-332.11 -240)"/><path class="cls-2" d="M406.35,271.81h0a30,30,0,0,0-16.42-19.45h0a30,30,0,0,0-39.81,14.69h0a30,30,0,0,0-1.71,20.36h0a29.94,29.94,0,0,0,16.41,19.45h0a29.53,29.53,0,0,0,12.52,2.77,30.4,30.4,0,0,0,12.9-2.92h0a30,30,0,0,0,16.09-34.91Zm-40.09,2.11a5.11,5.11,0,0,1-4-.24c-.94-.69-1.82-3.48-2-4.6-.25-1.65,1.15-2.64,1.07-4.12-.1-1.78-2.34-2.4-3.58-3.15a2.51,2.51,0,0,0-2.34-.31c-.57.69-1.09,1.41-1.6,2.16-.32,1.74,2,2.64,3.2,3.56,1,.75,3,2,2.72,3.18-.22.88-.62,1.05-1.17.75-.16-.08-.32-.6-.54-.73a4,4,0,0,0-1.54,0c-1.54.09-2.28,1.74-2.77,3.16-.67,2,1.71,2.44,2.95,1.21.7-.7.58-2.74,2-2.1a15.17,15.17,0,0,1,1.74,1.28,16.45,16.45,0,0,1,2,2c2,2-.69,2.8-2.17,4-.86.72-1.38,1.75-2.21,2.51a5.1,5.1,0,0,1-2.21,1c-.63.19-2.69.55-2.63,1.4.05.57,1.44,1.24,1.9,1.52a43.59,43.59,0,0,0,5.09,2.49c1.33.57,5.42,1.37,5.57,3.14s-1.78,3.2-2.78,4.33a34.44,34.44,0,0,0-2.47,3.5c-.24.37-.6,1-1,1.7a28.43,28.43,0,0,1-3.85-3.75,10,10,0,0,0,.39-2,42,42,0,0,0-.09-4.63c-.06-1.72-.06-1.79-1.67-2.48-1.24-.53-2.5-.92-3.74-1.38A3.36,3.36,0,0,1,350,287a.66.66,0,0,1,0-.15h0a28.39,28.39,0,0,1,1.62-19.23h0a29.28,29.28,0,0,1,2.22-3.94,1.77,1.77,0,0,1,.12-.37,3,3,0,0,1,1.48-1.79,28.33,28.33,0,0,1,9.75-7.63,28.93,28.93,0,0,1,4.38-1.65c1.82.74,3.31,1.88,3.23,3.84-.08,1.8-1,2.67-1.86,4.11-1.05,1.79.43,4.24-.68,6.12-.48.85-1.35,1.42-1.85,2.28a11,11,0,0,0-1,2.58C367.15,271.94,367,273.43,366.26,273.92Zm18,15.34a37.56,37.56,0,0,0-2.4,4.94c-1,2,.17,5.31-3,5.72-2.41.32-3.37-.4-3.34-2.74,0-1.6,1.07-3.67.39-5.24a2.61,2.61,0,0,0-2.45-1.44,9.19,9.19,0,0,1-3.4-1c-2.07-1.14-2.15-2.24-1.33-4.17a36.49,36.49,0,0,1,1.25-3.61c.33-.58,1.75-1.12,2.39-.57.4.36.08,1,.21,1.42.77,2.59,4,.61,5.6,1.16l.39.09c.88.1,1.8.42,2.67.58,1.38.26,4.55.39,4.76,2.1C386.21,287.83,384.88,288.36,384.25,289.26Zm12,11.28a1.42,1.42,0,0,1-1.07-.51c-.72-1.12,1.51-3.49,1.95-4.36.88-1.71,1.39-2.72,3.26-3.29a6.68,6.68,0,0,1,2.38-.45A28.47,28.47,0,0,1,396.29,300.54Zm7.58-23.68c-1,1.07-1.44,2.61-2.59,3.51a9.64,9.64,0,0,0-2.18,1.9c-.81,1.14-2.31,2.68-2.56,4.08-.19,1.07,1.65,8.29-1.45,5.39a4,4,0,0,1-1.07-3.6,1.69,1.69,0,0,0-.35-1.71c-.54-.73-1.18-1.32-1.89-.65-1,1-.1,3.8-2.2,3.84s-1.26-1.76-1.72-2.84a8,8,0,0,0-1.17-1.24,8.8,8.8,0,0,0-2.59-1.63c-2.1-1-4.24-.94-6.35-1.68-3.15-1.1-6.17-2-6.68-5.65-.14-.94.06-2.71,1.34-2.48.55.1.74.93,1.36.78s.46-.87.64-1.25a14.83,14.83,0,0,1,1.71-2.27c.87-1.15,1.52-3.34,3.14-3.7,1.35-.3,1.74,1,2.37,1.93.47.72.85,1.42,1.86,1.08s.65-.91.64-1.79c0-1.44.29-2.79.29-4.24,0-2.33,1.82-3.12,4.07-2.33.24,1.31-1.5,2.07-2.2,3-1,1.27.18,2.64,1.63,1.78.4-.22.68-1,1-1.33a9.47,9.47,0,0,1,1.5-1.1,10.83,10.83,0,0,1,1.85-.88c1.37-.52,3-.07,4.23-.51l.18.39c.44.25.77.73,1.27.87a6,6,0,0,0,1.86-.21,4.37,4.37,0,0,1,1.6.22,28.43,28.43,0,0,1,3.29,7.59h0a28.1,28.1,0,0,1,.65,3.16C405,275.74,404.46,276.23,403.87,276.86Z" transform="translate(-332.11 -240)"/><path class="cls-3" d="M413.17,284.46a36,36,0,0,1-6.35,16.08h1.93a37.35,37.35,0,0,0,6-16.08Z" transform="translate(-332.11 -240)"/><path class="cls-3" d="M387.85,244.94s0,.08,0,.12a35.92,35.92,0,0,1,8.78,4h2.84a37.49,37.49,0,0,0-11.61-5.69Z" transform="translate(-332.11 -240)"/><path class="cls-3" d="M399.46,310.18h-2.84a35.55,35.55,0,0,1-8.78,4s0,.08,0,.12v1.54A37.27,37.27,0,0,0,399.46,310.18Z" transform="translate(-332.11 -240)"/><path class="cls-3" d="M366.9,314.33a.49.49,0,0,1,0-.12,35.78,35.78,0,0,1-8.79-4h-2.84a37.43,37.43,0,0,0,11.62,5.69Z" transform="translate(-332.11 -240)"/><path class="cls-3" d="M406.82,258.73a36,36,0,0,1,6.35,16.08h1.61a37.4,37.4,0,0,0-6-16.08Z" transform="translate(-332.11 -240)"/><path class="cls-3" d="M355.28,249.09h2.84a36.16,36.16,0,0,1,8.79-4,.49.49,0,0,1,0-.12V243.4A37.65,37.65,0,0,0,355.28,249.09Z" transform="translate(-332.11 -240)"/><path class="cls-3" d="M341.58,274.81a35.9,35.9,0,0,1,6.35-16.08H346a37.66,37.66,0,0,0-6,16.08Z" transform="translate(-332.11 -240)"/><path class="cls-3" d="M347.93,300.54a35.9,35.9,0,0,1-6.35-16.08H340a37.61,37.61,0,0,0,6,16.08Z" transform="translate(-332.11 -240)"/><path class="cls-4" d="M385.07,240h-15.4a1.17,1.17,0,0,0-1.17,1.18v4.15a1.17,1.17,0,0,0,1.17,1.18h15.4a1.18,1.18,0,0,0,1.18-1.18v-4.15A1.18,1.18,0,0,0,385.07,240Z" transform="translate(-332.11 -240)"/><path class="cls-5" d="M385.07,245.9h-15.4a1.1,1.1,0,0,1-1.17-1v.46a1.17,1.17,0,0,0,1.17,1.18h15.4a1.18,1.18,0,0,0,1.18-1.18v-.46A1.11,1.11,0,0,1,385.07,245.9Z" transform="translate(-332.11 -240)"/><path class="cls-1" d="M371.25,243.71A.73.73,0,1,1,372,243,.73.73,0,0,1,371.25,243.71Zm0-1.06a.33.33,0,1,0,.33.33A.33.33,0,0,0,371.25,242.65Z" transform="translate(-332.11 -240)"/><path class="cls-6" d="M371.25,243.51a.53.53,0,1,1,.53-.53A.53.53,0,0,1,371.25,243.51Z" transform="translate(-332.11 -240)"/><path class="cls-1" d="M376.63,243.71a.73.73,0,1,1,.73-.73A.73.73,0,0,1,376.63,243.71Zm0-1.06a.33.33,0,1,0,.33.33A.33.33,0,0,0,376.63,242.65Z" transform="translate(-332.11 -240)"/><path class="cls-6" d="M376.63,243.51a.53.53,0,1,1,0-1.06.53.53,0,1,1,0,1.06Z" transform="translate(-332.11 -240)"/><path class="cls-1" d="M373.94,243.71a.73.73,0,1,1,.73-.73A.73.73,0,0,1,373.94,243.71Zm0-1.06a.33.33,0,1,0,.33.33A.33.33,0,0,0,373.94,242.65Z" transform="translate(-332.11 -240)"/><circle class="cls-3" cx="41.82" cy="2.98" r="0.53"/><path class="cls-1" d="M379.32,243.71a.73.73,0,1,1,.73-.73A.73.73,0,0,1,379.32,243.71Zm0-1.06a.33.33,0,1,0,.33.33A.33.33,0,0,0,379.32,242.65Z" transform="translate(-332.11 -240)"/><path class="cls-7" d="M379.32,243.51a.53.53,0,1,1,.53-.53A.53.53,0,0,1,379.32,243.51Z" transform="translate(-332.11 -240)"/><rect class="cls-5" x="50.06" y="3.81" width="1.8" height="0.74"/><rect class="cls-2" x="50.06" y="1.64" width="1.8" height="1.8"/><path class="cls-4" d="M385.07,312.76h-15.4a1.17,1.17,0,0,0-1.17,1.18v4.16a1.17,1.17,0,0,0,1.17,1.18h15.4a1.18,1.18,0,0,0,1.18-1.18v-4.16A1.18,1.18,0,0,0,385.07,312.76Z" transform="translate(-332.11 -240)"/><path class="cls-5" d="M385.07,318.66h-15.4a1.1,1.1,0,0,1-1.17-1v.47a1.17,1.17,0,0,0,1.17,1.18h15.4a1.18,1.18,0,0,0,1.18-1.18v-.47A1.11,1.11,0,0,1,385.07,318.66Z" transform="translate(-332.11 -240)"/><path class="cls-1" d="M371.25,316.48a.74.74,0,1,1,.73-.74A.73.73,0,0,1,371.25,316.48Zm0-1.07a.33.33,0,0,0-.33.33.33.33,0,0,0,.66,0A.33.33,0,0,0,371.25,315.41Z" transform="translate(-332.11 -240)"/><path class="cls-6" d="M371.25,316.27a.53.53,0,0,1-.53-.53.53.53,0,0,1,1.06,0A.53.53,0,0,1,371.25,316.27Z" transform="translate(-332.11 -240)"/><path class="cls-1" d="M376.63,316.47a.73.73,0,0,1,0-1.46.73.73,0,0,1,0,1.46Zm0-1.06a.33.33,0,0,0-.33.33.33.33,0,0,0,.66,0A.33.33,0,0,0,376.63,315.41Z" transform="translate(-332.11 -240)"/><path class="cls-6" d="M376.63,316.27a.52.52,0,0,1-.53-.53.53.53,0,0,1,.53-.53.53.53,0,0,1,.53.53A.53.53,0,0,1,376.63,316.27Z" transform="translate(-332.11 -240)"/><path class="cls-1" d="M373.94,316.48a.74.74,0,1,1,.73-.74A.73.73,0,0,1,373.94,316.48Zm0-1.07a.33.33,0,0,0-.33.33.33.33,0,0,0,.66,0A.33.33,0,0,0,373.94,315.41Z" transform="translate(-332.11 -240)"/><path class="cls-3" d="M373.94,316.27a.52.52,0,0,1-.53-.53.53.53,0,0,1,.53-.53.53.53,0,0,1,.53.53A.53.53,0,0,1,373.94,316.27Z" transform="translate(-332.11 -240)"/><path class="cls-1" d="M379.32,316.47a.73.73,0,1,1,.73-.73A.73.73,0,0,1,379.32,316.47Zm0-1.06a.33.33,0,0,0-.33.33.33.33,0,0,0,.66,0A.33.33,0,0,0,379.32,315.41Z" transform="translate(-332.11 -240)"/><path class="cls-7" d="M379.32,316.27a.53.53,0,0,1-.53-.53.53.53,0,0,1,1.06,0A.53.53,0,0,1,379.32,316.27Z" transform="translate(-332.11 -240)"/><rect class="cls-5" x="50.06" y="76.58" width="1.8" height="0.74"/><rect class="cls-2" x="50.06" y="74.4" width="1.8" height="1.8"/><path class="cls-4" d="M410.8,302.1H395.4a1.18,1.18,0,0,0-1.18,1.18v4.16a1.18,1.18,0,0,0,1.18,1.18h15.4a1.18,1.18,0,0,0,1.18-1.18v-4.16A1.18,1.18,0,0,0,410.8,302.1Z" transform="translate(-332.11 -240)"/><path class="cls-5" d="M410.8,308H395.4a1.11,1.11,0,0,1-1.18-1v.46a1.18,1.18,0,0,0,1.18,1.18h15.4a1.18,1.18,0,0,0,1.18-1.18V307A1.11,1.11,0,0,1,410.8,308Z" transform="translate(-332.11 -240)"/><path class="cls-1" d="M397,305.82a.73.73,0,0,1,0-1.46.73.73,0,0,1,0,1.46Zm0-1.06a.33.33,0,0,0,0,.66.33.33,0,0,0,0-.66Z" transform="translate(-332.11 -240)"/><path class="cls-6" d="M397,305.62a.53.53,0,0,1-.53-.53.53.53,0,0,1,.53-.53.52.52,0,0,1,.53.53A.53.53,0,0,1,397,305.62Z" transform="translate(-332.11 -240)"/><path class="cls-1" d="M402.35,305.82a.73.73,0,1,1,.74-.73A.73.73,0,0,1,402.35,305.82Zm0-1.06a.33.33,0,1,0,.33.33A.33.33,0,0,0,402.35,304.76Z" transform="translate(-332.11 -240)"/><path class="cls-6" d="M402.35,305.62a.53.53,0,0,1-.53-.53.53.53,0,0,1,.53-.53.52.52,0,0,1,.53.53A.53.53,0,0,1,402.35,305.62Z" transform="translate(-332.11 -240)"/><path class="cls-1" d="M399.66,305.82a.73.73,0,0,1,0-1.46.73.73,0,0,1,0,1.46Zm0-1.06a.33.33,0,1,0,.33.33A.33.33,0,0,0,399.66,304.76Z" transform="translate(-332.11 -240)"/><path class="cls-3" d="M399.66,305.62a.53.53,0,0,1-.53-.53.53.53,0,0,1,.53-.53.52.52,0,0,1,.53.53A.53.53,0,0,1,399.66,305.62Z" transform="translate(-332.11 -240)"/><path class="cls-1" d="M405,305.82a.73.73,0,0,1,0-1.46.73.73,0,0,1,0,1.46Zm0-1.06a.33.33,0,1,0,.33.33A.33.33,0,0,0,405,304.76Z" transform="translate(-332.11 -240)"/><path class="cls-7" d="M405,305.62a.53.53,0,0,1-.53-.53.53.53,0,0,1,1.06,0A.53.53,0,0,1,405,305.62Z" transform="translate(-332.11 -240)"/><rect class="cls-5" x="75.79" y="65.92" width="1.8" height="0.74"/><rect class="cls-2" x="75.79" y="63.74" width="1.8" height="1.8"/><path class="cls-4" d="M359.34,302.1H344a1.18,1.18,0,0,0-1.18,1.18v4.16a1.18,1.18,0,0,0,1.18,1.18h15.39a1.18,1.18,0,0,0,1.18-1.18v-4.16A1.18,1.18,0,0,0,359.34,302.1Z" transform="translate(-332.11 -240)"/><path class="cls-5" d="M359.34,308H344a1.11,1.11,0,0,1-1.18-1v.46a1.18,1.18,0,0,0,1.18,1.18h15.39a1.18,1.18,0,0,0,1.18-1.18V307A1.11,1.11,0,0,1,359.34,308Z" transform="translate(-332.11 -240)"/><path class="cls-1" d="M345.52,305.82a.73.73,0,0,1,0-1.46.73.73,0,0,1,0,1.46Zm0-1.06a.33.33,0,1,0,.33.33A.33.33,0,0,0,345.52,304.76Z" transform="translate(-332.11 -240)"/><path class="cls-6" d="M345.52,305.62a.53.53,0,0,1-.53-.53.53.53,0,1,1,1.06,0A.53.53,0,0,1,345.52,305.62Z" transform="translate(-332.11 -240)"/><path class="cls-1" d="M350.9,305.82a.73.73,0,1,1,.73-.73A.73.73,0,0,1,350.9,305.82Zm0-1.06a.33.33,0,1,0,.33.33A.33.33,0,0,0,350.9,304.76Z" transform="translate(-332.11 -240)"/><path class="cls-6" d="M350.9,305.62a.53.53,0,0,1-.53-.53.53.53,0,0,1,.53-.53.52.52,0,0,1,.53.53A.53.53,0,0,1,350.9,305.62Z" transform="translate(-332.11 -240)"/><path class="cls-1" d="M348.21,305.82a.73.73,0,0,1,0-1.46.73.73,0,0,1,0,1.46Zm0-1.06a.33.33,0,1,0,.33.33A.33.33,0,0,0,348.21,304.76Z" transform="translate(-332.11 -240)"/><path class="cls-3" d="M348.21,305.62a.53.53,0,0,1-.53-.53.53.53,0,1,1,1.06,0A.53.53,0,0,1,348.21,305.62Z" transform="translate(-332.11 -240)"/><path class="cls-1" d="M353.59,305.82a.73.73,0,0,1,0-1.46.73.73,0,0,1,0,1.46Zm0-1.06a.33.33,0,1,0,.33.33A.33.33,0,0,0,353.59,304.76Z" transform="translate(-332.11 -240)"/><path class="cls-7" d="M353.59,305.62a.53.53,0,0,1-.53-.53.53.53,0,0,1,.53-.53.52.52,0,0,1,.53.53A.53.53,0,0,1,353.59,305.62Z" transform="translate(-332.11 -240)"/><rect class="cls-5" x="24.33" y="65.92" width="1.8" height="0.74"/><rect class="cls-2" x="24.33" y="63.74" width="1.8" height="1.8"/><path class="cls-4" d="M359.31,250.91h-15.4a1.17,1.17,0,0,0-1.18,1.17v4.16a1.18,1.18,0,0,0,1.18,1.18h15.4a1.18,1.18,0,0,0,1.18-1.18v-4.16A1.17,1.17,0,0,0,359.31,250.91Z" transform="translate(-332.11 -240)"/><path class="cls-5" d="M359.31,256.81h-15.4a1.11,1.11,0,0,1-1.18-1v.46a1.18,1.18,0,0,0,1.18,1.18h15.4a1.18,1.18,0,0,0,1.18-1.18v-.46A1.11,1.11,0,0,1,359.31,256.81Z" transform="translate(-332.11 -240)"/><path class="cls-1" d="M345.48,254.62a.73.73,0,1,1,.73-.73A.73.73,0,0,1,345.48,254.62Zm0-1.06a.33.33,0,1,0,.33.33A.33.33,0,0,0,345.48,253.56Z" transform="translate(-332.11 -240)"/><path class="cls-6" d="M345.48,254.42a.53.53,0,0,1,0-1.06.53.53,0,1,1,0,1.06Z" transform="translate(-332.11 -240)"/><path class="cls-1" d="M350.86,254.62a.73.73,0,1,1,.73-.73A.73.73,0,0,1,350.86,254.62Zm0-1.06a.33.33,0,1,0,.33.33A.33.33,0,0,0,350.86,253.56Z" transform="translate(-332.11 -240)"/><path class="cls-6" d="M350.86,254.42a.53.53,0,0,1,0-1.06.53.53,0,1,1,0,1.06Z" transform="translate(-332.11 -240)"/><path class="cls-1" d="M348.17,254.62a.73.73,0,1,1,.73-.73A.73.73,0,0,1,348.17,254.62Zm0-1.06a.33.33,0,1,0,.33.33A.33.33,0,0,0,348.17,253.56Z" transform="translate(-332.11 -240)"/><path class="cls-3" d="M348.17,254.42a.53.53,0,0,1,0-1.06.53.53,0,1,1,0,1.06Z" transform="translate(-332.11 -240)"/><path class="cls-1" d="M353.55,254.62a.73.73,0,1,1,.73-.73A.73.73,0,0,1,353.55,254.62Zm0-1.06a.33.33,0,1,0,.33.33A.33.33,0,0,0,353.55,253.56Z" transform="translate(-332.11 -240)"/><path class="cls-7" d="M353.55,254.42a.53.53,0,1,1,.53-.53A.53.53,0,0,1,353.55,254.42Z" transform="translate(-332.11 -240)"/><rect class="cls-5" x="24.3" y="14.72" width="1.8" height="0.74"/><rect class="cls-2" x="24.3" y="12.55" width="1.8" height="1.8"/><path class="cls-4" d="M410.83,250.91H395.44a1.17,1.17,0,0,0-1.18,1.17v4.16a1.18,1.18,0,0,0,1.18,1.18h15.39a1.18,1.18,0,0,0,1.19-1.18v-4.16A1.18,1.18,0,0,0,410.83,250.91Z" transform="translate(-332.11 -240)"/><path class="cls-5" d="M410.83,256.81H395.44a1.11,1.11,0,0,1-1.18-1v.46a1.18,1.18,0,0,0,1.18,1.18h15.39a1.18,1.18,0,0,0,1.19-1.18v-.46A1.12,1.12,0,0,1,410.83,256.81Z" transform="translate(-332.11 -240)"/><path class="cls-1" d="M397,254.62a.73.73,0,1,1,.74-.73A.73.73,0,0,1,397,254.62Zm0-1.06a.33.33,0,0,0,0,.66.33.33,0,0,0,0-.66Z" transform="translate(-332.11 -240)"/><path class="cls-6" d="M397,254.42a.53.53,0,1,1,0-1.06.53.53,0,0,1,0,1.06Z" transform="translate(-332.11 -240)"/><path class="cls-1" d="M402.39,254.62a.73.73,0,1,1,.73-.73A.73.73,0,0,1,402.39,254.62Zm0-1.06a.33.33,0,0,0,0,.66.33.33,0,0,0,0-.66Z" transform="translate(-332.11 -240)"/><path class="cls-6" d="M402.39,254.42a.53.53,0,1,1,0-1.06.53.53,0,0,1,0,1.06Z" transform="translate(-332.11 -240)"/><path class="cls-1" d="M399.7,254.62a.73.73,0,1,1,.73-.73A.73.73,0,0,1,399.7,254.62Zm0-1.06a.33.33,0,0,0,0,.66.33.33,0,0,0,0-.66Z" transform="translate(-332.11 -240)"/><path class="cls-3" d="M399.7,254.42a.53.53,0,1,1,0-1.06.53.53,0,0,1,0,1.06Z" transform="translate(-332.11 -240)"/><path class="cls-1" d="M405.08,254.62a.73.73,0,1,1,.74-.73A.73.73,0,0,1,405.08,254.62Zm0-1.06a.33.33,0,1,0,.33.33A.33.33,0,0,0,405.08,253.56Z" transform="translate(-332.11 -240)"/><path class="cls-7" d="M405.08,254.42a.53.53,0,1,1,0-1.06.53.53,0,0,1,0,1.06Z" transform="translate(-332.11 -240)"/><rect class="cls-5" x="75.83" y="14.72" width="1.8" height="0.74"/><rect class="cls-2" x="75.83" y="12.55" width="1.8" height="1.8"/><path class="cls-4" d="M421.45,276.38H406.06a1.18,1.18,0,0,0-1.18,1.18v4.15a1.18,1.18,0,0,0,1.18,1.18h15.39a1.18,1.18,0,0,0,1.18-1.18v-4.15A1.18,1.18,0,0,0,421.45,276.38Z" transform="translate(-332.11 -240)"/><path class="cls-5" d="M421.45,282.28H406.06a1.11,1.11,0,0,1-1.18-1v.46a1.18,1.18,0,0,0,1.18,1.18h15.39a1.18,1.18,0,0,0,1.18-1.18v-.46A1.11,1.11,0,0,1,421.45,282.28Z" transform="translate(-332.11 -240)"/><path class="cls-1" d="M407.63,280.09a.73.73,0,1,1,.73-.73A.73.73,0,0,1,407.63,280.09Zm0-1.06a.33.33,0,1,0,.33.33A.33.33,0,0,0,407.63,279Z" transform="translate(-332.11 -240)"/><path class="cls-6" d="M407.63,279.89a.53.53,0,1,1,.53-.53A.53.53,0,0,1,407.63,279.89Z" transform="translate(-332.11 -240)"/><path class="cls-1" d="M413,280.09a.73.73,0,1,1,.73-.73A.73.73,0,0,1,413,280.09Zm0-1.06a.33.33,0,1,0,.33.33A.33.33,0,0,0,413,279Z" transform="translate(-332.11 -240)"/><path class="cls-6" d="M413,279.89a.53.53,0,0,1,0-1.06.53.53,0,0,1,0,1.06Z" transform="translate(-332.11 -240)"/><path class="cls-1" d="M410.32,280.09a.73.73,0,1,1,.73-.73A.73.73,0,0,1,410.32,280.09Zm0-1.06a.33.33,0,1,0,.33.33A.33.33,0,0,0,410.32,279Z" transform="translate(-332.11 -240)"/><path class="cls-3" d="M410.32,279.89a.53.53,0,1,1,.53-.53A.53.53,0,0,1,410.32,279.89Z" transform="translate(-332.11 -240)"/><path class="cls-1" d="M415.7,280.09a.73.73,0,1,1,.73-.73A.73.73,0,0,1,415.7,280.09Zm0-1.06a.33.33,0,1,0,.33.33A.33.33,0,0,0,415.7,279Z" transform="translate(-332.11 -240)"/><path class="cls-7" d="M415.7,279.89a.53.53,0,1,1,.53-.53A.53.53,0,0,1,415.7,279.89Z" transform="translate(-332.11 -240)"/><rect class="cls-5" x="86.44" y="40.19" width="1.8" height="0.74"/><rect class="cls-2" x="86.44" y="38.02" width="1.8" height="1.8"/><path class="cls-4" d="M348.69,276.38h-15.4a1.18,1.18,0,0,0-1.18,1.18v4.15a1.18,1.18,0,0,0,1.18,1.18h15.4a1.18,1.18,0,0,0,1.18-1.18v-4.15A1.18,1.18,0,0,0,348.69,276.38Z" transform="translate(-332.11 -240)"/><path class="cls-5" d="M348.69,282.28h-15.4a1.11,1.11,0,0,1-1.18-1v.46a1.18,1.18,0,0,0,1.18,1.18h15.4a1.18,1.18,0,0,0,1.18-1.18v-.46A1.11,1.11,0,0,1,348.69,282.28Z" transform="translate(-332.11 -240)"/><path class="cls-1" d="M334.87,280.09a.73.73,0,1,1,.73-.73A.74.74,0,0,1,334.87,280.09Zm0-1.06a.33.33,0,1,0,0,.66.33.33,0,1,0,0-.66Z" transform="translate(-332.11 -240)"/><path class="cls-6" d="M334.87,279.89a.53.53,0,1,1,0-1.06.53.53,0,1,1,0,1.06Z" transform="translate(-332.11 -240)"/><path class="cls-1" d="M340.25,280.09a.73.73,0,1,1,.73-.73A.74.74,0,0,1,340.25,280.09Zm0-1.06a.33.33,0,1,0,0,.66.33.33,0,1,0,0-.66Z" transform="translate(-332.11 -240)"/><path class="cls-6" d="M340.25,279.89a.53.53,0,1,1,.53-.53A.54.54,0,0,1,340.25,279.89Z" transform="translate(-332.11 -240)"/><path class="cls-1" d="M337.56,280.09a.73.73,0,1,1,.73-.73A.73.73,0,0,1,337.56,280.09Zm0-1.06a.33.33,0,1,0,0,.66.33.33,0,0,0,0-.66Z" transform="translate(-332.11 -240)"/><path class="cls-3" d="M337.56,279.89a.53.53,0,1,1,0-1.06.53.53,0,1,1,0,1.06Z" transform="translate(-332.11 -240)"/><path class="cls-1" d="M342.94,280.09a.73.73,0,1,1,.73-.73A.74.74,0,0,1,342.94,280.09Zm0-1.06a.33.33,0,1,0,0,.66.33.33,0,1,0,0-.66Z" transform="translate(-332.11 -240)"/><path class="cls-7" d="M342.94,279.89a.53.53,0,1,1,0-1.06.53.53,0,1,1,0,1.06Z" transform="translate(-332.11 -240)"/><rect class="cls-5" x="13.68" y="40.19" width="1.8" height="0.74"/><rect class="cls-2" x="13.68" y="38.02" width="1.8" height="1.8"/></svg>